{
  "accessors": [
    {
      "bufferView": 2,
      "componentType": 5126,
      "count": 65532,
      "max": [
        188.6736602783203,
        59.95317077636719,
        131.60009765625
      ],
      "min": [
        -189.19692993164063,
        -56.51271438598633,
        -120.64813232421875
      ],
      "type": "VEC3"
    },
    {
      "bufferView": 2,
      "byteOffset": 786384,
      "componentType": 5126,
      "count": 65532,
      "max": [
        0.999965488910675,
        0.9999945759773254,
        0.9999855160713196
      ],
      "min": [
        -0.9998442530632019,
        -0.9999982714653015,
        -0.9999874234199524
      ],
      "type": "VEC3"
    },
    {
      "bufferView": 1,
      "componentType": 5126,
      "count": 65532,
      "max": [
        0.988294780254364,
        0.9836310148239136
      ],
      "min": [
        0.0007440000190399587,
        0.0007469999836757779
      ],
      "type": "VEC2"
    },
    {
      "bufferView": 0,
      "componentType": 5125,
      "count": 65532,
      "type": "SCALAR"
    },
    {
      "bufferView": 2,
      "byteOffset": 1572768,
      "componentType": 5126,
      "count": 65532,
      "max": [
        188.80686950683594,
        60.7226676940918,
        130.94546508789063
      ],
      "min": [
        -190.6255645751953,
        -55.45999526977539,
        -120.99087524414063
      ],
      "type": "VEC3"
    },
    {
      "bufferView": 2,
      "byteOffset": 2359152,
      "componentType": 5126,
      "count": 65532,
      "max": [
        0.999897837638855,
        0.9999857544898987,
        0.9999873042106628
      ],
      "min": [
        -0.999985933303833,
        -0.9999154806137085,
        -0.9999990463256836
      ],
      "type": "VEC3"
    },
    {
      "bufferView": 1,
      "byteOffset": 524256,
      "componentType": 5126,
      "count": 65532,
      "max": [
        0.9984639883041382,
        0.9992043972015381
      ],
      "min": [
        0.022321000695228577,
        0.0007619999814778566
      ],
      "type": "VEC2"
    },
    {
      "bufferView": 0,
      "byteOffset": 262128,
      "componentType": 5125,
      "count": 65532,
      "type": "SCALAR"
    },
    {
      "bufferView": 2,
      "byteOffset": 3145536,
      "componentType": 5126,
      "count": 65532,
      "max": [
        188.96473693847656,
        61.05385208129883,
        133.0713653564453
      ],
      "min": [
        -190.6255645751953,
        -56.7558708190918,
        -121.18480682373047
      ],
      "type": "VEC3"
    },
    {
      "bufferView": 2,
      "byteOffset": 3931920,
      "componentType": 5126,
      "count": 65532,
      "max": [
        0.9999551177024841,
        0.9999736547470093,
        0.9999688267707825
      ],
      "min": [
        -0.9998711943626404,
        -0.9999963045120239,
        -0.9999251365661621
      ],
      "type": "VEC3"
    },
    {
      "bufferView": 1,
      "byteOffset": 1048512,
      "componentType": 5126,
      "count": 65532,
      "max": [
        0.9224268198013306,
        0.9337290525436401
      ],
      "min": [
        0.009801904670894146,
        0.0016080000204965472
      ],
      "type": "VEC2"
    },
    {
      "bufferView": 0,
      "byteOffset": 524256,
      "componentType": 5125,
      "count": 65532,
      "type": "SCALAR"
    },
    {
      "bufferView": 2,
      "byteOffset": 4718304,
      "componentType": 5126,
      "count": 65532,
      "max": [
        188.7516632080078,
        59.743587493896484,
        133.46133422851563
      ],
      "min": [
        -188.5457000732422,
        -55.596412658691406,
        -120.76919555664063
      ],
      "type": "VEC3"
    },
    {
      "bufferView": 2,
      "byteOffset": 5504688,
      "componentType": 5126,
      "count": 65532,
      "max": [
        0.9999563694000244,
        0.9999938607215881,
        0.99997878074646
      ],
      "min": [
        -0.999711275100708,
        -0.9999813437461853,
        -0.9999597072601318
      ],
      "type": "VEC3"
    },
    {
      "bufferView": 1,
      "byteOffset": 1572768,
      "componentType": 5126,
      "count": 65532,
      "max": [
        0.9760984182357788,
        0.8431875109672546
      ],
      "min": [
        0.0793474018573761,
        0.0014909999445080757
      ],
      "type": "VEC2"
    },
    {
      "bufferView": 0,
      "byteOffset": 786384,
      "componentType": 5125,
      "count": 65532,
      "type": "SCALAR"
    },
    {
      "bufferView": 2,
      "byteOffset": 6291072,
      "componentType": 5126,
      "count": 65532,
      "max": [
        187.3546142578125,
        50.50825500488281,
        132.06451416015625
      ],
      "min": [
        -186.66127014160156,
        -57.05663299560547,
        -120.99087524414063
      ],
      "type": "VEC3"
    },
    {
      "bufferView": 2,
      "byteOffset": 7077456,
      "componentType": 5126,
      "count": 65532,
      "max": [
        0.9999600648880005,
        0.9999850392341614,
        0.9999307990074158
      ],
      "min": [
        -0.999907374382019,
        -0.9999307990074158,
        -0.9998370409011841
      ],
      "type": "VEC3"
    },
    {
      "bufferView": 1,
      "byteOffset": 2097024,
      "componentType": 5126,
      "count": 65532,
      "max": [
        0.9842309951782227,
        0.88979172706604
      ],
      "min": [
        0.03308013826608658,
        0.0008570000063627958
      ],
      "type": "VEC2"
    },
    {
      "bufferView": 0,
      "byteOffset": 1048512,
      "componentType": 5125,
      "count": 65532,
      "type": "SCALAR"
    },
    {
      "bufferView": 2,
      "byteOffset": 7863840,
      "componentType": 5126,
      "count": 65532,
      "max": [
        186.21011352539063,
        55.21772384643555,
        133.46133422851563
      ],
      "min": [
        -185.2859344482422,
        -57.05663299560547,
        -117.33918762207031
      ],
      "type": "VEC3"
    },
    {
      "bufferView": 2,
      "byteOffset": 8650224,
      "componentType": 5126,
      "count": 65532,
      "max": [
        0.9994621872901917,
        0.999971330165863,
        0.9999199509620667
      ],
      "min": [
        -0.9999265074729919,
        -0.9999477863311768,
        -0.9999587535858154
      ],
      "type": "VEC3"
    },
    {
      "bufferView": 1,
      "byteOffset": 2621280,
      "componentType": 5126,
      "count": 65532,
      "max": [
        0.9224474430084229,
        0.822172999382019
      ],
      "min": [
        0.009796574711799622,
        0.020691508427262306
      ],
      "type": "VEC2"
    },
    {
      "bufferView": 0,
      "byteOffset": 1310640,
      "componentType": 5125,
      "count": 65532,
      "type": "SCALAR"
    },
    {
      "bufferView": 2,
      "byteOffset": 9436608,
      "componentType": 5126,
      "count": 65532,
      "max": [
        186.8077392578125,
        59.9749870300293,
        119.11070251464844
      ],
      "min": [
        -86.23495483398438,
        -24.910009384155273,
        -64.75466918945313
      ],
      "type": "VEC3"
    },
    {
      "bufferView": 2,
      "byteOffset": 10222992,
      "componentType": 5126,
      "count": 65532,
      "max": [
        0.9991980791091919,
        0.9999939203262329,
        0.9998393654823303
      ],
      "min": [
        -0.9996220469474792,
        -0.9999498724937439,
        -0.9999887347221375
      ],
      "type": "VEC3"
    },
    {
      "bufferView": 1,
      "byteOffset": 3145536,
      "componentType": 5126,
      "count": 65532,
      "max": [
        0.9847152233123779,
        0.9991965293884277
      ],
      "min": [
        0.07008254528045654,
        0.6496909260749817
      ],
      "type": "VEC2"
    },
    {
      "bufferView": 0,
      "byteOffset": 1572768,
      "componentType": 5125,
      "count": 65532,
      "type": "SCALAR"
    },
    {
      "bufferView": 2,
      "byteOffset": 11009376,
      "componentType": 5126,
      "count": 65532,
      "max": [
        68.53559112548828,
        31.65973663330078,
        54.55958938598633
      ],
      "min": [
        -183.00137329101563,
        -52.00468063354492,
        -98.98941802978516
      ],
      "type": "VEC3"
    },
    {
      "bufferView": 2,
      "byteOffset": 11795760,
      "componentType": 5126,
      "count": 65532,
      "max": [
        0.9999921321868896,
        0.9999693632125854,
        0.9999751448631287
      ],
      "min": [
        -0.9993891716003418,
        -0.99998939037323,
        -0.9999768733978271
      ],
      "type": "VEC3"
    },
    {
      "bufferView": 1,
      "byteOffset": 3669792,
      "componentType": 5126,
      "count": 65532,
      "max": [
        0.8315170407295227,
        0.9992560148239136
      ],
      "min": [
        0.004773844964802265,
        0.6825520992279053
      ],
      "type": "VEC2"
    },
    {
      "bufferView": 0,
      "byteOffset": 1834896,
      "componentType": 5125,
      "count": 65532,
      "type": "SCALAR"
    },
    {
      "bufferView": 2,
      "byteOffset": 12582144,
      "componentType": 5126,
      "count": 65532,
      "max": [
        180.74305725097656,
        55.50511169433594,
        119.55671691894531
      ],
      "min": [
        -147.29808044433594,
        -43.252750396728516,
        -102.39368438720703
      ],
      "type": "VEC3"
    },
    {
      "bufferView": 2,
      "byteOffset": 13368528,
      "componentType": 5126,
      "count": 65532,
      "max": [
        0.9999434947967529,
        0.9999633431434631,
        0.9996509552001953
      ],
      "min": [
        -0.9999082088470459,
        -0.9999927878379822,
        -0.9999139308929443
      ],
      "type": "VEC3"
    },
    {
      "bufferView": 1,
      "byteOffset": 4194048,
      "componentType": 5126,
      "count": 65532,
      "max": [
        0.854087233543396,
        0.9992560148239136
      ],
      "min": [
        0.0023384648375213146,
        0.4702420234680176
      ],
      "type": "VEC2"
    },
    {
      "bufferView": 0,
      "byteOffset": 2097024,
      "componentType": 5125,
      "count": 65532,
      "type": "SCALAR"
    },
    {
      "bufferView": 2,
      "byteOffset": 14154912,
      "componentType": 5126,
      "count": 65532,
      "max": [
        186.96701049804688,
        59.430782318115234,
        131.42208862304688
      ],
      "min": [
        -190.4921417236328,
        -50.68960189819336,
        -115.57412719726563
      ],
      "type": "VEC3"
    },
    {
      "bufferView": 2,
      "byteOffset": 14941296,
      "componentType": 5126,
      "count": 65532,
      "max": [
        0.9999407529830933,
        0.9999983310699463,
        0.9999586343765259
      ],
      "min": [
        -0.9997356534004211,
        -0.9999902844429016,
        -0.9998570680618286
      ],
      "type": "VEC3"
    },
    {
      "bufferView": 1,
      "byteOffset": 4718304,
      "componentType": 5126,
      "count": 65532,
      "max": [
        0.9876092672348022,
        0.9059590101242065
      ],
      "min": [
        0.10874743014574051,
        0.27504897117614746
      ],
      "type": "VEC2"
    },
    {
      "bufferView": 0,
      "byteOffset": 2359152,
      "componentType": 5125,
      "count": 65532,
      "type": "SCALAR"
    },
    {
      "bufferView": 2,
      "byteOffset": 15727680,
      "componentType": 5126,
      "count": 65532,
      "max": [
        165.56866455078125,
        56.10564041137695,
        122.07652282714844
      ],
      "min": [
        -180.2702178955078,
        -46.193824768066406,
        -119.98394775390625
      ],
      "type": "VEC3"
    },
    {
      "bufferView": 2,
      "byteOffset": 16514064,
      "componentType": 5126,
      "count": 65532,
      "max": [
        0.9999969005584717,
        0.9999638795852661,
        0.9998825192451477
      ],
      "min": [
        -0.9997689127922058,
        -0.9999904632568359,
        -0.99994295835495
      ],
      "type": "VEC3"
    },
    {
      "bufferView": 1,
      "byteOffset": 5242560,
      "componentType": 5126,
      "count": 65532,
      "max": [
        0.9394010305404663,
        0.9079211950302124
      ],
      "min": [
        0.003078022738918662,
        0.16130800545215607
      ],
      "type": "VEC2"
    },
    {
      "bufferView": 0,
      "byteOffset": 2621280,
      "componentType": 5125,
      "count": 65532,
      "type": "SCALAR"
    },
    {
      "bufferView": 2,
      "byteOffset": 17300448,
      "componentType": 5126,
      "count": 35148,
      "max": [
        172.18870544433594,
        58.89031982421875,
        131.5802764892578
      ],
      "min": [
        -176.77761840820313,
        -56.99881362915039,
        -119.97903442382813
      ],
      "type": "VEC3"
    },
    {
      "bufferView": 2,
      "byteOffset": 17722224,
      "componentType": 5126,
      "count": 35148,
      "max": [
        0.9999578595161438,
        0.9998581409454346,
        0.9999859929084778
      ],
      "min": [
        -0.9998431205749512,
        -0.9999257326126099,
        -0.9999961256980896
      ],
      "type": "VEC3"
    },
    {
      "bufferView": 1,
      "byteOffset": 5766816,
      "componentType": 5126,
      "count": 35148,
      "max": [
        0.6226984262466431,
        0.908292293548584
      ],
      "min": [
        0.11984111368656158,
        0.031001999974250793
      ],
      "type": "VEC2"
    },
    {
      "bufferView": 0,
      "byteOffset": 2883408,
      "componentType": 5125,
      "count": 35148,
      "type": "SCALAR"
    },
    {
      "bufferView": 2,
      "byteOffset": 18144000,
      "componentType": 5126,
      "count": 65532,
      "max": [
        130.57347106933594,
        36.60443115234375,
        24.73911476135254
      ],
      "min": [
        -106.75923919677734,
        -38.91400909423828,
        -21.403757095336914
      ],
      "type": "VEC3"
    },
    {
      "bufferView": 2,
      "byteOffset": 18930384,
      "componentType": 5126,
      "count": 65532,
      "max": [
        0.9998074769973755,
        0.9999688863754272,
        0.9999819397926331
      ],
      "min": [
        -0.999925434589386,
        -0.9999854564666748,
        -0.9999703764915466
      ],
      "type": "VEC3"
    },
    {
      "bufferView": 1,
      "byteOffset": 6048000,
      "componentType": 5126,
      "count": 65532,
      "max": [
        0.9948828816413879,
        0.9680060148239136
      ],
      "min": [
        0.0007440000190399587,
        0.0007489999989047647
      ],
      "type": "VEC2"
    },
    {
      "bufferView": 0,
      "byteOffset": 3024000,
      "componentType": 5125,
      "count": 65532,
      "type": "SCALAR"
    },
    {
      "bufferView": 2,
      "byteOffset": 19716768,
      "componentType": 5126,
      "count": 65532,
      "max": [
        116.58216094970703,
        33.414615631103516,
        22.98243522644043
      ],
      "min": [
        -105.95669555664063,
        -41.152862548828125,
        -22.15005111694336
      ],
      "type": "VEC3"
    },
    {
      "bufferView": 2,
      "byteOffset": 20503152,
      "componentType": 5126,
      "count": 65532,
      "max": [
        0.9999917149543762,
        0.9999943971633911,
        0.9999781250953674
      ],
      "min": [
        -0.999991238117218,
        -0.9998980760574341,
        -0.9999490976333618
      ],
      "type": "VEC3"
    },
    {
      "bufferView": 1,
      "byteOffset": 6572256,
      "componentType": 5126,
      "count": 65532,
      "max": [
        0.9488479495048523,
        0.7719430923461914
      ],
      "min": [
        0.09672600030899048,
        0.0013444859068840742
      ],
      "type": "VEC2"
    },
    {
      "bufferView": 0,
      "byteOffset": 3286128,
      "componentType": 5125,
      "count": 65532,
      "type": "SCALAR"
    },
    {
      "bufferView": 2,
      "byteOffset": 21289536,
      "componentType": 5126,
      "count": 65532,
      "max": [
        124.85047149658203,
        40.19646453857422,
        25.551334381103516
      ],
      "min": [
        -109.54559326171875,
        -42.968685150146484,
        -23.98346710205078
      ],
      "type": "VEC3"
    },
    {
      "bufferView": 2,
      "byteOffset": 22075920,
      "componentType": 5126,
      "count": 65532,
      "max": [
        0.9998804926872253,
        0.9999129176139832,
        0.9999973773956299
      ],
      "min": [
        -0.9999994039535522,
        -0.9999953508377075,
        -0.9999895691871643
      ],
      "type": "VEC3"
    },
    {
      "bufferView": 1,
      "byteOffset": 7096512,
      "componentType": 5126,
      "count": 65532,
      "max": [
        0.9128334522247314,
        0.8419520854949951
      ],
      "min": [
        0.029817163944244385,
        0.0048340000212192535
      ],
      "type": "VEC2"
    },
    {
      "bufferView": 0,
      "byteOffset": 3548256,
      "componentType": 5125,
      "count": 65532,
      "type": "SCALAR"
    },
    {
      "bufferView": 2,
      "byteOffset": 22862304,
      "componentType": 5126,
      "count": 65532,
      "max": [
        129.50555419921875,
        47.778751373291016,
        25.17924690246582
      ],
      "min": [
        -116.08793640136719,
        -42.54255294799805,
        -28.1077880859375
      ],
      "type": "VEC3"
    },
    {
      "bufferView": 2,
      "byteOffset": 23648688,
      "componentType": 5126,
      "count": 65532,
      "max": [
        0.9999920725822449,
        0.9999419450759888,
        0.9999772310256958
      ],
      "min": [
        -0.999925971031189,
        -0.9999913573265076,
        -0.9999971389770508
      ],
      "type": "VEC3"
    },
    {
      "bufferView": 1,
      "byteOffset": 7620768,
      "componentType": 5126,
      "count": 65532,
      "max": [
        0.9974766969680786,
        0.8685611486434937
      ],
      "min": [
        0.011940221302211285,
        0.026775721460580826
      ],
      "type": "VEC2"
    },
    {
      "bufferView": 0,
      "byteOffset": 3810384,
      "componentType": 5125,
      "count": 65532,
      "type": "SCALAR"
    },
    {
      "bufferView": 2,
      "byteOffset": 24435072,
      "componentType": 5126,
      "count": 65532,
      "max": [
        110.26737976074219,
        49.063507080078125,
        24.39592742919922
      ],
      "min": [
        -116.08793640136719,
        -31.27948760986328,
        -21.080942153930664
      ],
      "type": "VEC3"
    },
    {
      "bufferView": 2,
      "byteOffset": 25221456,
      "componentType": 5126,
      "count": 65532,
      "max": [
        0.9999932050704956,
        0.9999721050262451,
        0.9999051690101624
      ],
      "min": [
        -0.9999508261680603,
        -0.9998342990875244,
        -0.9999997615814209
      ],
      "type": "VEC3"
    },
    {
      "bufferView": 1,
      "byteOffset": 8145024,
      "componentType": 5126,
      "count": 65532,
      "max": [
        0.9975584745407104,
        0.999191164970398
      ],
      "min": [
        0.007763864006847143,
        0.0012650851858779788
      ],
      "type": "VEC2"
    },
    {
      "bufferView": 0,
      "byteOffset": 4072512,
      "componentType": 5125,
      "count": 65532,
      "type": "SCALAR"
    },
    {
      "bufferView": 2,
      "byteOffset": 26007840,
      "componentType": 5126,
      "count": 65532,
      "max": [
        129.87965393066406,
        49.247737884521484,
        25.032636642456055
      ],
      "min": [
        -114.90725708007813,
        -42.11846923828125,
        -21.467784881591797
      ],
      "type": "VEC3"
    },
    {
      "bufferView": 2,
      "byteOffset": 26794224,
      "componentType": 5126,
      "count": 65532,
      "max": [
        0.9998283982276917,
        0.9999249577522278,
        0.9999298453330994
      ],
      "min": [
        -0.9999876022338867,
        -0.9999997019767761,
        -0.9995545148849487
      ],
      "type": "VEC3"
    },
    {
      "bufferView": 1,
      "byteOffset": 8669280,
      "componentType": 5126,
      "count": 65532,
      "max": [
        0.825954020023346,
        0.998813271522522
      ],
      "min": [
        0.33872586488723755,
        0.07488290220499039
      ],
      "type": "VEC2"
    },
    {
      "bufferView": 0,
      "byteOffset": 4334640,
      "componentType": 5125,
      "count": 65532,
      "type": "SCALAR"
    },
    {
      "bufferView": 2,
      "byteOffset": 27580608,
      "componentType": 5126,
      "count": 65532,
      "max": [
        86.84805297851563,
        31.957202911376953,
        22.772485733032227
      ],
      "min": [
        -97.60002136230469,
        -16.790634155273438,
        -27.784395217895508
      ],
      "type": "VEC3"
    },
    {
      "bufferView": 2,
      "byteOffset": 28366992,
      "componentType": 5126,
      "count": 65532,
      "max": [
        0.9989770650863647,
        0.9999619722366333,
        0.9999648928642273
      ],
      "min": [
        -0.9993962049484253,
        -0.999870240688324,
        -0.9999964833259583
      ],
      "type": "VEC3"
    },
    {
      "bufferView": 1,
      "byteOffset": 9193536,
      "componentType": 5126,
      "count": 65532,
      "max": [
        0.7515999674797058,
        0.994280219078064
      ],
      "min": [
        0.003172149881720543,
        0.07793137431144714
      ],
      "type": "VEC2"
    },
    {
      "bufferView": 0,
      "byteOffset": 4596768,
      "componentType": 5125,
      "count": 65532,
      "type": "SCALAR"
    },
    {
      "bufferView": 2,
      "byteOffset": 29153376,
      "componentType": 5126,
      "count": 65532,
      "max": [
        21.18742561340332,
        49.247737884521484,
        24.680612564086914
      ],
      "min": [
        -111.38534545898438,
        -14.640478134155273,
        -28.022497177124023
      ],
      "type": "VEC3"
    },
    {
      "bufferView": 2,
      "byteOffset": 29939760,
      "componentType": 5126,
      "count": 65532,
      "max": [
        0.9999975562095642,
        0.9999930262565613,
        0.9999997019767761
      ],
      "min": [
        -0.9996229410171509,
        -0.9990593791007996,
        -0.9998436570167542
      ],
      "type": "VEC3"
    },
    {
      "bufferView": 1,
      "byteOffset": 9717792,
      "componentType": 5126,
      "count": 65532,
      "max": [
        0.3218061327934265,
        0.9992560148239136
      ],
      "min": [
        0.0007560126832686365,
        0.5408709645271301
      ],
      "type": "VEC2"
    },
    {
      "bufferView": 0,
      "byteOffset": 4858896,
      "componentType": 5125,
      "count": 65532,
      "type": "SCALAR"
    },
    {
      "bufferView": 2,
      "byteOffset": 30726144,
      "componentType": 5126,
      "count": 65532,
      "max": [
        56.50354766845703,
        21.21753692626953,
        18.218841552734375
      ],
      "min": [
        -83.20340728759766,
        -27.449464797973633,
        -21.872344970703125
      ],
      "type": "VEC3"
    },
    {
      "bufferView": 2,
      "byteOffset": 31512528,
      "componentType": 5126,
      "count": 65532,
      "max": [
        0.9995875358581543,
        0.9999966621398926,
        0.9999953508377075
      ],
      "min": [
        -0.9999940395355225,
        -0.9999934434890747,
        -0.999873161315918
      ],
      "type": "VEC3"
    },
    {
      "bufferView": 1,
      "byteOffset": 10242048,
      "componentType": 5126,
      "count": 65532,
      "max": [
        0.8290082812309265,
        0.9923255443572998
      ],
      "min": [
        0.22411900758743286,
        0.4186316728591919
      ],
      "type": "VEC2"
    },
    {
      "bufferView": 0,
      "byteOffset": 5121024,
      "componentType": 5125,
      "count": 65532,
      "type": "SCALAR"
    },
    {
      "bufferView": 2,
      "byteOffset": 32298912,
      "componentType": 5126,
      "count": 65532,
      "max": [
        55.443504333496094,
        43.06108856201172,
        16.421743392944336
      ],
      "min": [
        -102.43743896484375,
        -20.496408462524414,
        -14.954265594482422
      ],
      "type": "VEC3"
    },
    {
      "bufferView": 2,
      "byteOffset": 33085296,
      "componentType": 5126,
      "count": 65532,
      "max": [
        0.997467577457428,
        0.9992448091506958,
        0.9998598098754883
      ],
      "min": [
        -0.9999951124191284,
        -0.9999740719795227,
        -0.9999848008155823
      ],
      "type": "VEC3"
    },
    {
      "bufferView": 1,
      "byteOffset": 10766304,
      "componentType": 5126,
      "count": 65532,
      "max": [
        0.9299499988555908,
        0.9992157816886902
      ],
      "min": [
        0.35554784536361694,
        0.5165802836418152
      ],
      "type": "VEC2"
    },
    {
      "bufferView": 0,
      "byteOffset": 5383152,
      "componentType": 5125,
      "count": 65532,
      "type": "SCALAR"
    },
    {
      "bufferView": 2,
      "byteOffset": 33871680,
      "componentType": 5126,
      "count": 65532,
      "max": [
        129.4451141357422,
        32.10575485229492,
        7.13224983215332
      ],
      "min": [
        -102.22303771972656,
        -41.8074951171875,
        -21.18629264831543
      ],
      "type": "VEC3"
    },
    {
      "bufferView": 2,
      "byteOffset": 34658064,
      "componentType": 5126,
      "count": 65532,
      "max": [
        0.999930739402771,
        0.9999586343765259,
        0.9998409152030945
      ],
      "min": [
        -0.9993626475334167,
        -0.9998598694801331,
        -0.9999746680259705
      ],
      "type": "VEC3"
    },
    {
      "bufferView": 1,
      "byteOffset": 11290560,
      "componentType": 5126,
      "count": 65532,
      "max": [
        0.7657610177993774,
        0.7811661958694458
      ],
      "min": [
        0.36167800426483154,
        0.23055249452590942
      ],
      "type": "VEC2"
    },
    {
      "bufferView": 0,
      "byteOffset": 5645280,
      "componentType": 5125,
      "count": 65532,
      "type": "SCALAR"
    },
    {
      "bufferView": 2,
      "byteOffset": 35444448,
      "componentType": 5126,
      "count": 18948,
      "max": [
        129.87965393066406,
        -10.689815521240234,
        9.879324913024902
      ],
      "min": [
        15.481208801269531,
        -43.460227966308594,
        -19.111719131469727
      ],
      "type": "VEC3"
    },
    {
      "bufferView": 2,
      "byteOffset": 35671824,
      "componentType": 5126,
      "count": 18948,
      "max": [
        0.9999346733093262,
        0.9894723296165466,
        0.9999662637710571
      ],
      "min": [
        -0.997610867023468,
        -0.9998487234115601,
        -0.9998717904090881
      ],
      "type": "VEC3"
    },
    {
      "bufferView": 1,
      "byteOffset": 11814816,
      "componentType": 5126,
      "count": 18948,
      "max": [
        0.7035344839096069,
        0.7805060148239136
      ],
      "min": [
        0.3680356740951538,
        0.08311328291893005
      ],
      "type": "VEC2"
    },
    {
      "bufferView": 0,
      "byteOffset": 5907408,
      "componentType": 5125,
      "count": 18948,
      "type": "SCALAR"
    },
    {
      "bufferView": 2,
      "byteOffset": 35899200,
      "componentType": 5126,
      "count": 65532,
      "max": [
        206.82125854492188,
        40.7413215637207,
        51.05148696899414
      ],
      "min": [
        -120.11234283447266,
        -122.96591186523438,
        -60.66027069091797
      ],
      "type": "VEC3"
    },
    {
      "bufferView": 2,
      "byteOffset": 36685584,
      "componentType": 5126,
      "count": 65532,
      "max": [
        0.9999591112136841,
        0.9999964237213135,
        0.9999856352806091
      ],
      "min": [
        -0.9999631643295288,
        -0.9999595880508423,
        -0.9998635649681091
      ],
      "type": "VEC3"
    },
    {
      "bufferView": 1,
      "byteOffset": 11966400,
      "componentType": 5126,
      "count": 65532,
      "max": [
        0.9769330024719238,
        0.9770217537879944
      ],
      "min": [
        0.0006750000175088644,
        0.0005499999970197678
      ],
      "type": "VEC2"
    },
    {
      "bufferView": 0,
      "byteOffset": 5983200,
      "componentType": 5125,
      "count": 65532,
      "type": "SCALAR"
    },
    {
      "bufferView": 2,
      "byteOffset": 37471968,
      "componentType": 5126,
      "count": 65532,
      "max": [
        206.34889221191406,
        29.921276092529297,
        46.992610931396484
      ],
      "min": [
        -73.11116027832031,
        -122.96591186523438,
        -62.70356369018555
      ],
      "type": "VEC3"
    },
    {
      "bufferView": 2,
      "byteOffset": 38258352,
      "componentType": 5126,
      "count": 65532,
      "max": [
        0.999973475933075,
        0.9999957084655762,
        0.999981164932251
      ],
      "min": [
        -0.9997965097427368,
        -0.9999192357063293,
        -0.9999358057975769
      ],
      "type": "VEC3"
    },
    {
      "bufferView": 1,
      "byteOffset": 12490656,
      "componentType": 5126,
      "count": 65532,
      "max": [
        0.9720829129219055,
        0.5973132252693176
      ],
      "min": [
        0.11275099962949753,
        0.009387282654643059
      ],
      "type": "VEC2"
    },
    {
      "bufferView": 0,
      "byteOffset": 6245328,
      "componentType": 5125,
      "count": 65532,
      "type": "SCALAR"
    },
    {
      "bufferView": 2,
      "byteOffset": 39044736,
      "componentType": 5126,
      "count": 65532,
      "max": [
        193.81710815429688,
        97.02354431152344,
        46.0206413269043
      ],
      "min": [
        -249.2890625,
        -106.73140716552734,
        -67.07257843017578
      ],
      "type": "VEC3"
    },
    {
      "bufferView": 2,
      "byteOffset": 39831120,
      "componentType": 5126,
      "count": 65532,
      "max": [
        0.9993067383766174,
        0.9999943971633911,
        0.9999976754188538
      ],
      "min": [
        -0.9987988471984863,
        -0.9999393820762634,
        -0.9999685287475586
      ],
      "type": "VEC3"
    },
    {
      "bufferView": 1,
      "byteOffset": 13014912,
      "componentType": 5126,
      "count": 65532,
      "max": [
        0.8061129450798035,
        0.8754600286483765
      ],
      "min": [
        0.022489722818136215,
        0.0056329998187720776
      ],
      "type": "VEC2"
    },
    {
      "bufferView": 0,
      "byteOffset": 6507456,
      "componentType": 5125,
      "count": 65532,
      "type": "SCALAR"
    },
    {
      "bufferView": 2,
      "byteOffset": 40617504,
      "componentType": 5126,
      "count": 65532,
      "max": [
        194.7850341796875,
        97.59912109375,
        48.16022491455078
      ],
      "min": [
        -249.96478271484375,
        -110.15494537353516,
        -66.68782043457031
      ],
      "type": "VEC3"
    },
    {
      "bufferView": 2,
      "byteOffset": 41403888,
      "componentType": 5126,
      "count": 65532,
      "max": [
        0.998846709728241,
        0.9999783039093018,
        0.999887228012085
      ],
      "min": [
        -0.9993590116500854,
        -0.999845027923584,
        -0.9999999403953552
      ],
      "type": "VEC3"
    },
    {
      "bufferView": 1,
      "byteOffset": 13539168,
      "componentType": 5126,
      "count": 65532,
      "max": [
        0.9964269995689392,
        0.9194027185440063
      ],
      "min": [
        0.022279197350144386,
        0.1925223469734192
      ],
      "type": "VEC2"
    },
    {
      "bufferView": 0,
      "byteOffset": 6769584,
      "componentType": 5125,
      "count": 65532,
      "type": "SCALAR"
    },
    {
      "bufferView": 2,
      "byteOffset": 42190272,
      "componentType": 5126,
      "count": 65532,
      "max": [
        139.3192138671875,
        100.29845428466797,
        44.41786575317383
      ],
      "min": [
        -250.6781768798828,
        -47.839622497558594,
        -62.522708892822266
      ],
      "type": "VEC3"
    },
    {
      "bufferView": 2,
      "byteOffset": 42976656,
      "componentType": 5126,
      "count": 65532,
      "max": [
        0.9996486902236938,
        0.9999915361404419,
        0.9954332709312439
      ],
      "min": [
        -0.9999930262565613,
        -0.9999932646751404,
        -0.9999774694442749
      ],
      "type": "VEC3"
    },
    {
      "bufferView": 1,
      "byteOffset": 14063424,
      "componentType": 5126,
      "count": 65532,
      "max": [
        0.9981539845466614,
        0.9993249773979187
      ],
      "min": [
        0.07353489100933075,
        0.41773977875709534
      ],
      "type": "VEC2"
    },
    {
      "bufferView": 0,
      "byteOffset": 7031712,
      "componentType": 5125,
      "count": 65532,
      "type": "SCALAR"
    },
    {
      "bufferView": 2,
      "byteOffset": 43763040,
      "componentType": 5126,
      "count": 65532,
      "max": [
        206.56320190429688,
        93.22955322265625,
        41.54279327392578
      ],
      "min": [
        -249.26222229003906,
        -115.0162582397461,
        -66.66908264160156
      ],
      "type": "VEC3"
    },
    {
      "bufferView": 2,
      "byteOffset": 44549424,
      "componentType": 5126,
      "count": 65532,
      "max": [
        0.9999704957008362,
        0.9999913573265076,
        1.0
      ],
      "min": [
        -0.9973443746566772,
        -0.9997817873954773,
        -0.9999532699584961
      ],
      "type": "VEC3"
    },
    {
      "bufferView": 1,
      "byteOffset": 14587680,
      "componentType": 5126,
      "count": 65532,
      "max": [
        0.6726866364479065,
        0.9993235468864441
      ],
      "min": [
        0.0011733631836250424,
        0.2798527479171753
      ],
      "type": "VEC2"
    },
    {
      "bufferView": 0,
      "byteOffset": 7293840,
      "componentType": 5125,
      "count": 65532,
      "type": "SCALAR"
    },
    {
      "bufferView": 2,
      "byteOffset": 45335808,
      "componentType": 5126,
      "count": 65532,
      "max": [
        180.91262817382813,
        98.80239868164063,
        46.07155227661133
      ],
      "min": [
        -250.74957275390625,
        -104.80985260009766,
        -64.71501159667969
      ],
      "type": "VEC3"
    },
    {
      "bufferView": 2,
      "byteOffset": 46122192,
      "componentType": 5126,
      "count": 65532,
      "max": [
        0.9931486248970032,
        0.9998599290847778,
        0.9999651312828064
      ],
      "min": [
        -0.9999138116836548,
        -0.9999898076057434,
        -0.9999926686286926
      ],
      "type": "VEC3"
    },
    {
      "bufferView": 1,
      "byteOffset": 15111936,
      "componentType": 5126,
      "count": 65532,
      "max": [
        0.9963617324829102,
        0.9984906911849976
      ],
      "min": [
        0.2600119709968567,
        0.18537858128547668
      ],
      "type": "VEC2"
    },
    {
      "bufferView": 0,
      "byteOffset": 7555968,
      "componentType": 5125,
      "count": 65532,
      "type": "SCALAR"
    },
    {
      "bufferView": 2,
      "byteOffset": 46908576,
      "componentType": 5126,
      "count": 65532,
      "max": [
        132.45201110839844,
        26.719465255737305,
        50.33191680908203
      ],
      "min": [
        -103.62798309326172,
        -46.85283660888672,
        -63.02649688720703
      ],
      "type": "VEC3"
    },
    {
      "bufferView": 2,
      "byteOffset": 47694960,
      "componentType": 5126,
      "count": 65532,
      "max": [
        0.9606510400772095,
        0.9954524636268616,
        0.9999780058860779
      ],
      "min": [
        -0.999812126159668,
        -0.9998775720596313,
        -0.9996528625488281
      ],
      "type": "VEC3"
    },
    {
      "bufferView": 1,
      "byteOffset": 15636192,
      "componentType": 5126,
      "count": 65532,
      "max": [
        0.7855448722839355,
        0.7857183814048767
      ],
      "min": [
        0.38632166385650635,
        0.10441197454929352
      ],
      "type": "VEC2"
    },
    {
      "bufferView": 0,
      "byteOffset": 7818096,
      "componentType": 5125,
      "count": 65532,
      "type": "SCALAR"
    },
    {
      "bufferView": 2,
      "byteOffset": 48481344,
      "componentType": 5126,
      "count": 65532,
      "max": [
        61.433921813964844,
        62.280033111572266,
        50.33191680908203
      ],
      "min": [
        -150.5900421142578,
        -20.23569107055664,
        2.484004497528076
      ],
      "type": "VEC3"
    },
    {
      "bufferView": 2,
      "byteOffset": 49267728,
      "componentType": 5126,
      "count": 65532,
      "max": [
        0.996975839138031,
        0.998935878276825,
        0.9999762177467346
      ],
      "min": [
        -0.9987345337867737,
        -0.9999948143959045,
        -0.9999942779541016
      ],
      "type": "VEC3"
    },
    {
      "bufferView": 1,
      "byteOffset": 16160448,
      "componentType": 5126,
      "count": 65532,
      "max": [
        0.888022780418396,
        0.8944174647331238
      ],
      "min": [
        0.001902794698253274,
        0.0013050669804215431
      ],
      "type": "VEC2"
    },
    {
      "bufferView": 0,
      "byteOffset": 8080224,
      "componentType": 5125,
      "count": 65532,
      "type": "SCALAR"
    },
    {
      "bufferView": 2,
      "byteOffset": 50054112,
      "componentType": 5126,
      "count": 20262,
      "max": [
        59.40550231933594,
        85.7686767578125,
        47.71946334838867
      ],
      "min": [
        -185.42578125,
        -17.59746742248535,
        4.320014953613281
      ],
      "type": "VEC3"
    },
    {
      "bufferView": 2,
      "byteOffset": 50297256,
      "componentType": 5126,
      "count": 20262,
      "max": [
        0.9785851240158081,
        0.9946076273918152,
        0.9999855160713196
      ],
      "min": [
        -0.9994497299194336,
        -0.9952550530433655,
        -0.9985095262527466
      ],
      "type": "VEC3"
    },
    {
      "bufferView": 1,
      "byteOffset": 16684704,
      "componentType": 5126,
      "count": 20262,
      "max": [
        0.978413999080658,
        0.8894411325454712
      ],
      "min": [
        0.008985648863017559,
        0.3200318217277527
      ],
      "type": "VEC2"
    },
    {
      "bufferView": 0,
      "byteOffset": 8342352,
      "componentType": 5125,
      "count": 20262,
      "type": "SCALAR"
    },
    {
      "bufferView": 2,
      "byteOffset": 50540400,
      "componentType": 5126,
      "count": 65532,
      "max": [
        182.36634826660156,
        57.74814987182617,
        59.47459030151367
      ],
      "min": [
        -186.0057830810547,
        -20.755413055419922,
        -36.216426849365234
      ],
      "type": "VEC3"
    },
    {
      "bufferView": 2,
      "byteOffset": 51326784,
      "componentType": 5126,
      "count": 65532,
      "max": [
        0.9998312592506409,
        0.999984860420227,
        0.9999405741691589
      ],
      "min": [
        -0.9999806880950928,
        -0.9999885559082031,
        -0.9999421238899231
      ],
      "type": "VEC3"
    },
    {
      "bufferView": 1,
      "byteOffset": 16846800,
      "componentType": 5126,
      "count": 65532,
      "max": [
        0.9929730296134949,
        0.9055179953575134
      ],
      "min": [
        0.0006429279455915093,
        0.0005460000247694552
      ],
      "type": "VEC2"
    },
    {
      "bufferView": 0,
      "byteOffset": 8423400,
      "componentType": 5125,
      "count": 65532,
      "type": "SCALAR"
    },
    {
      "bufferView": 2,
      "byteOffset": 52113168,
      "componentType": 5126,
      "count": 65532,
      "max": [
        183.92276000976563,
        60.035396575927734,
        60.185691833496094
      ],
      "min": [
        -189.93382263183594,
        -21.34967803955078,
        -37.07699203491211
      ],
      "type": "VEC3"
    },
    {
      "bufferView": 2,
      "byteOffset": 52899552,
      "componentType": 5126,
      "count": 65532,
      "max": [
        0.9999913573265076,
        0.999998152256012,
        0.9998708367347717
      ],
      "min": [
        -0.9999411702156067,
        -0.9999676942825317,
        -0.9999809265136719
      ],
      "type": "VEC3"
    },
    {
      "bufferView": 1,
      "byteOffset": 17371056,
      "componentType": 5126,
      "count": 65532,
      "max": [
        0.9913174510002136,
        0.8597411513328552
      ],
      "min": [
        0.0029313049744814634,
        0.0005460000247694552
      ],
      "type": "VEC2"
    },
    {
      "bufferView": 0,
      "byteOffset": 8685528,
      "componentType": 5125,
      "count": 65532,
      "type": "SCALAR"
    },
    {
      "bufferView": 2,
      "byteOffset": 53685936,
      "componentType": 5126,
      "count": 65532,
      "max": [
        170.96279907226563,
        59.82865524291992,
        59.362266540527344
      ],
      "min": [
        -192.9679718017578,
        -21.600698471069336,
        -36.40730667114258
      ],
      "type": "VEC3"
    },
    {
      "bufferView": 2,
      "byteOffset": 54472320,
      "componentType": 5126,
      "count": 65532,
      "max": [
        0.999920129776001,
        0.9999445080757141,
        0.9999783635139465
      ],
      "min": [
        -0.9999653697013855,
        -0.999995231628418,
        -0.9999316334724426
      ],
      "type": "VEC3"
    },
    {
      "bufferView": 1,
      "byteOffset": 17895312,
      "componentType": 5126,
      "count": 65532,
      "max": [
        0.9717479944229126,
        0.9164440035820007
      ],
      "min": [
        0.0019280000124126673,
        0.0005639999872073531
      ],
      "type": "VEC2"
    },
    {
      "bufferView": 0,
      "byteOffset": 8947656,
      "componentType": 5125,
      "count": 65532,
      "type": "SCALAR"
    },
    {
      "bufferView": 2,
      "byteOffset": 55258704,
      "componentType": 5126,
      "count": 65532,
      "max": [
        171.78480529785156,
        56.30250930786133,
        58.21900177001953
      ],
      "min": [
        -194.48989868164063,
        -22.287160873413086,
        -36.88883972167969
      ],
      "type": "VEC3"
    },
    {
      "bufferView": 2,
      "byteOffset": 56045088,
      "componentType": 5126,
      "count": 65532,
      "max": [
        0.9999873638153076,
        0.9999324083328247,
        0.9999879598617554
      ],
      "min": [
        -0.9999164938926697,
        -0.999991774559021,
        -0.9999839663505554
      ],
      "type": "VEC3"
    },
    {
      "bufferView": 1,
      "byteOffset": 18419568,
      "componentType": 5126,
      "count": 65532,
      "max": [
        0.993664026260376,
        0.9192360043525696
      ],
      "min": [
        0.02635199949145317,
        0.002420868491753936
      ],
      "type": "VEC2"
    },
    {
      "bufferView": 0,
      "byteOffset": 9209784,
      "componentType": 5125,
      "count": 65532,
      "type": "SCALAR"
    },
    {
      "bufferView": 2,
      "byteOffset": 56831472,
      "componentType": 5126,
      "count": 65532,
      "max": [
        184.37913513183594,
        57.0484733581543,
        61.0775032043457
      ],
      "min": [
        -191.25048828125,
        -21.547527313232422,
        -35.94913864135742
      ],
      "type": "VEC3"
    },
    {
      "bufferView": 2,
      "byteOffset": 57617856,
      "componentType": 5126,
      "count": 65532,
      "max": [
        0.9999624490737915,
        0.9999977350234985,
        0.9999911189079285
      ],
      "min": [
        -0.9997440576553345,
        -0.9999481439590454,
        -0.9999637603759766
      ],
      "type": "VEC3"
    },
    {
      "bufferView": 1,
      "byteOffset": 18943824,
      "componentType": 5126,
      "count": 65532,
      "max": [
        0.9966374635696411,
        0.9688376784324646
      ],
      "min": [
        0.01028400007635355,
        0.001183754182420671
      ],
      "type": "VEC2"
    },
    {
      "bufferView": 0,
      "byteOffset": 9471912,
      "componentType": 5125,
      "count": 65532,
      "type": "SCALAR"
    },
    {
      "bufferView": 2,
      "byteOffset": 58404240,
      "componentType": 5126,
      "count": 65532,
      "max": [
        183.92276000976563,
        57.99919128417969,
        62.39362335205078
      ],
      "min": [
        -191.73675537109375,
        -22.02974510192871,
        -36.4410400390625
      ],
      "type": "VEC3"
    },
    {
      "bufferView": 2,
      "byteOffset": 59190624,
      "componentType": 5126,
      "count": 65532,
      "max": [
        0.9998763799667358,
        0.9999524354934692,
        0.999998152256012
      ],
      "min": [
        -0.9999132752418518,
        -0.999998152256012,
        -0.9999827146530151
      ],
      "type": "VEC3"
    },
    {
      "bufferView": 1,
      "byteOffset": 19468080,
      "componentType": 5126,
      "count": 65532,
      "max": [
        0.9976354837417603,
        0.9985880851745605
      ],
      "min": [
        0.0009396164095960557,
        0.11617200076580048
      ],
      "type": "VEC2"
    },
    {
      "bufferView": 0,
      "byteOffset": 9734040,
      "componentType": 5125,
      "count": 65532,
      "type": "SCALAR"
    },
    {
      "bufferView": 2,
      "byteOffset": 59977008,
      "componentType": 5126,
      "count": 65532,
      "max": [
        183.2232208251953,
        61.962120056152344,
        63.615028381347656
      ],
      "min": [
        -194.48989868164063,
        -23.075668334960938,
        -28.332887649536133
      ],
      "type": "VEC3"
    },
    {
      "bufferView": 2,
      "byteOffset": 60763392,
      "componentType": 5126,
      "count": 65532,
      "max": [
        0.9999434947967529,
        0.9999723434448242,
        0.9999655485153198
      ],
      "min": [
        -0.9997586607933044,
        -0.9999739527702332,
        -0.9999758005142212
      ],
      "type": "VEC3"
    },
    {
      "bufferView": 1,
      "byteOffset": 19992336,
      "componentType": 5126,
      "count": 65532,
      "max": [
        0.9929973483085632,
        0.999352216720581
      ],
      "min": [
        0.0015694118337705731,
        0.7312355637550354
      ],
      "type": "VEC2"
    },
    {
      "bufferView": 0,
      "byteOffset": 9996168,
      "componentType": 5125,
      "count": 65532,
      "type": "SCALAR"
    },
    {
      "bufferView": 2,
      "byteOffset": 61549776,
      "componentType": 5126,
      "count": 65532,
      "max": [
        184.45782470703125,
        62.30628967285156,
        67.391845703125
      ],
      "min": [
        -194.48989868164063,
        -22.688636779785156,
        -28.95121955871582
      ],
      "type": "VEC3"
    },
    {
      "bufferView": 2,
      "byteOffset": 62336160,
      "componentType": 5126,
      "count": 65532,
      "max": [
        0.9998131990432739,
        0.9999996423721313,
        0.9999437928199768
      ],
      "min": [
        -0.9994544386863708,
        -0.9999684691429138,
        -0.9999590516090393
      ],
      "type": "VEC3"
    },
    {
      "bufferView": 1,
      "byteOffset": 20516592,
      "componentType": 5126,
      "count": 65532,
      "max": [
        0.9882103204727173,
        0.9993569850921631
      ],
      "min": [
        0.00964100006967783,
        0.6105958223342896
      ],
      "type": "VEC2"
    },
    {
      "bufferView": 0,
      "byteOffset": 10258296,
      "componentType": 5125,
      "count": 65532,
      "type": "SCALAR"
    },
    {
      "bufferView": 2,
      "byteOffset": 63122544,
      "componentType": 5126,
      "count": 65532,
      "max": [
        181.03329467773438,
        58.67961120605469,
        62.562442779541016
      ],
      "min": [
        -193.93927001953125,
        -21.64876937866211,
        -37.86370849609375
      ],
      "type": "VEC3"
    },
    {
      "bufferView": 2,
      "byteOffset": 63908928,
      "componentType": 5126,
      "count": 65532,
      "max": [
        0.9998644590377808,
        0.9999740719795227,
        0.9999904632568359
      ],
      "min": [
        -0.9999914169311523,
        -0.999955415725708,
        -0.9999715089797974
      ],
      "type": "VEC3"
    },
    {
      "bufferView": 1,
      "byteOffset": 21040848,
      "componentType": 5126,
      "count": 65532,
      "max": [
        0.9871280193328857,
        0.9937793016433716
      ],
      "min": [
        0.00964100006967783,
        0.0016850000247359276
      ],
      "type": "VEC2"
    },
    {
      "bufferView": 0,
      "byteOffset": 10520424,
      "componentType": 5125,
      "count": 65532,
      "type": "SCALAR"
    },
    {
      "bufferView": 2,
      "byteOffset": 64695312,
      "componentType": 5126,
      "count": 65532,
      "max": [
        183.40858459472656,
        59.480751037597656,
        61.27218246459961
      ],
      "min": [
        -193.6983642578125,
        -22.02974510192871,
        -37.07699203491211
      ],
      "type": "VEC3"
    },
    {
      "bufferView": 2,
      "byteOffset": 65481696,
      "componentType": 5126,
      "count": 65532,
      "max": [
        0.9999886751174927,
        0.9999834895133972,
        0.9999583959579468
      ],
      "min": [
        -0.9999709725379944,
        -0.9999542832374573,
        -0.999965250492096
      ],
      "type": "VEC3"
    },
    {
      "bufferView": 1,
      "byteOffset": 21565104,
      "componentType": 5126,
      "count": 65532,
      "max": [
        0.987112820148468,
        0.9431912899017334
      ],
      "min": [
        0.02635199949145317,
        0.0007859999896027148
      ],
      "type": "VEC2"
    },
    {
      "bufferView": 0,
      "byteOffset": 10782552,
      "componentType": 5125,
      "count": 65532,
      "type": "SCALAR"
    },
    {
      "bufferView": 2,
      "byteOffset": 66268080,
      "componentType": 5126,
      "count": 65532,
      "max": [
        179.73764038085938,
        59.4884033203125,
        60.23502731323242
      ],
      "min": [
        -189.16627502441406,
        -20.17671012878418,
        -36.654197692871094
      ],
      "type": "VEC3"
    },
    {
      "bufferView": 2,
      "byteOffset": 67054464,
      "componentType": 5126,
      "count": 65532,
      "max": [
        0.9998789429664612,
        0.99998539686203,
        0.9999818801879883
      ],
      "min": [
        -0.9999079704284668,
        -0.9999814033508301,
        -0.9999986290931702
      ],
      "type": "VEC3"
    },
    {
      "bufferView": 1,
      "byteOffset": 22089360,
      "componentType": 5126,
      "count": 65532,
      "max": [
        0.9653390049934387,
        0.958221971988678
      ],
      "min": [
        0.0006430000066757202,
        0.0008171407971531153
      ],
      "type": "VEC2"
    },
    {
      "bufferView": 0,
      "byteOffset": 11044680,
      "componentType": 5125,
      "count": 65532,
      "type": "SCALAR"
    },
    {
      "bufferView": 2,
      "byteOffset": 67840848,
      "componentType": 5126,
      "count": 65532,
      "max": [
        184.2828369140625,
        57.0484733581543,
        61.95600128173828
      ],
      "min": [
        -186.42047119140625,
        -21.846702575683594,
        -37.86370849609375
      ],
      "type": "VEC3"
    },
    {
      "bufferView": 2,
      "byteOffset": 68627232,
      "componentType": 5126,
      "count": 65532,
      "max": [
        0.9999930262565613,
        0.9999746084213257,
        0.9999938607215881
      ],
      "min": [
        -0.999998927116394,
        -0.9998605251312256,
        -0.9999974966049194
      ],
      "type": "VEC3"
    },
    {
      "bufferView": 1,
      "byteOffset": 22613616,
      "componentType": 5126,
      "count": 65532,
      "max": [
        0.996086061000824,
        0.9813429713249207
      ],
      "min": [
        0.0019280000124126673,
        0.0006485335761681199
      ],
      "type": "VEC2"
    },
    {
      "bufferView": 0,
      "byteOffset": 11306808,
      "componentType": 5125,
      "count": 65532,
      "type": "SCALAR"
    },
    {
      "bufferView": 2,
      "byteOffset": 69413616,
      "componentType": 5126,
      "count": 65532,
      "max": [
        176.8805389404297,
        62.106590270996094,
        58.94796371459961
      ],
      "min": [
        -190.3827667236328,
        -22.287160873413086,
        -36.463199615478516
      ],
      "type": "VEC3"
    },
    {
      "bufferView": 2,
      "byteOffset": 70200000,
      "componentType": 5126,
      "count": 65532,
      "max": [
        0.9999743103981018,
        0.9997040629386902,
        0.9999966621398926
      ],
      "min": [
        -0.9999472498893738,
        -0.9999866485595703,
        -0.9999479055404663
      ],
      "type": "VEC3"
    },
    {
      "bufferView": 1,
      "byteOffset": 23137872,
      "componentType": 5126,
      "count": 65532,
      "max": [
        0.992021918296814,
        0.9133591651916504
      ],
      "min": [
        0.04313499853014946,
        0.0007673120708204806
      ],
      "type": "VEC2"
    },
    {
      "bufferView": 0,
      "byteOffset": 11568936,
      "componentType": 5125,
      "count": 65532,
      "type": "SCALAR"
    },
    {
      "bufferView": 2,
      "byteOffset": 70986384,
      "componentType": 5126,
      "count": 65532,
      "max": [
        171.45718383789063,
        58.42410659790039,
        58.40870666503906
      ],
      "min": [
        -192.08018493652344,
        -21.600400924682617,
        -36.40274429321289
      ],
      "type": "VEC3"
    },
    {
      "bufferView": 2,
      "byteOffset": 71772768,
      "componentType": 5126,
      "count": 65532,
      "max": [
        0.999977171421051,
        0.9999982714653015,
        0.9999595284461975
      ],
      "min": [
        -0.9999761581420898,
        -0.9999317526817322,
        -0.9999668598175049
      ],
      "type": "VEC3"
    },
    {
      "bufferView": 1,
      "byteOffset": 23662128,
      "componentType": 5126,
      "count": 65532,
      "max": [
        0.9961211681365967,
        0.943596601486206
      ],
      "min": [
        0.0019895313307642937,
        0.0006046672351658344
      ],
      "type": "VEC2"
    },
    {
      "bufferView": 0,
      "byteOffset": 11831064,
      "componentType": 5125,
      "count": 65532,
      "type": "SCALAR"
    },
    {
      "bufferView": 2,
      "byteOffset": 72559152,
      "componentType": 5126,
      "count": 47646,
      "max": [
        170.66354370117188,
        62.30628967285156,
        58.33282470703125
      ],
      "min": [
        -190.5082244873047,
        -20.77802848815918,
        -35.8919677734375
      ],
      "type": "VEC3"
    },
    {
      "bufferView": 2,
      "byteOffset": 73130904,
      "componentType": 5126,
      "count": 47646,
      "max": [
        0.9999698400497437,
        0.9999546408653259,
        0.9999709129333496
      ],
      "min": [
        -0.999916672706604,
        -0.9999846816062927,
        -0.9999175667762756
      ],
      "type": "VEC3"
    },
    {
      "bufferView": 1,
      "byteOffset": 24186384,
      "componentType": 5126,
      "count": 47646,
      "max": [
        0.9980950355529785,
        0.926241397857666
      ],
      "min": [
        0.0019280000124126673,
        0.0006692034658044577
      ],
      "type": "VEC2"
    },
    {
      "bufferView": 0,
      "byteOffset": 12093192,
      "componentType": 5125,
      "count": 47646,
      "type": "SCALAR"
    }
  ],
  "asset": {
    "extras": {
      "author": "Arkify (https://sketchfab.com/arkify)",
      "license": "CC-BY-4.0 (http://creativecommons.org/licenses/by/4.0/)",
      "source": "https://sketchfab.com/3d-models/collection-of-forest-branches-11df981a8ff7441a9bdded31cc770e5f",
      "title": "Collection of Forest Branches"
    },
    "generator": "Sketchfab-12.66.0",
    "version": "2.0"
  },
  "bufferViews": [
    {
      "buffer": 0,
      "byteLength": 12283776,
      "name": "floatBufferViews",
      "target": 34963
    },
    {
      "buffer": 0,
      "byteLength": 24567552,
      "byteOffset": 12283776,
      "byteStride": 8,
      "name": "floatBufferViews",
      "target": 34962
    },
    {
      "buffer": 0,
      "byteLength": 73702656,
      "byteOffset": 36851328,
      "byteStride": 12,
      "name": "floatBufferViews",
      "target": 34962
    }
  ],
  "buffers": [
    {
      "byteLength": 110553984,
      "uri": "scene.bin"
    }
  ],
  "images": [
    {
      "uri": "textures/material_0_baseColor.png"
    },
    {
      "uri": "textures/material_0.001_baseColor.png"
    },
    {
      "uri": "textures/material_0.002_baseColor.png"
    },
    {
      "uri": "textures/material_0.003_baseColor.png"
    }
  ],
  "materials": [
    {
      "doubleSided": true,
      "name": "material_0",
      "pbrMetallicRoughness": {
        "baseColorTexture": {
          "index": 0
        },
        "metallicFactor": 0.0
      }
    },
    {
      "doubleSided": true,
      "name": "material_0.001",
      "pbrMetallicRoughness": {
        "baseColorTexture": {
          "index": 1
        },
        "metallicFactor": 0.0
      }
    },
    {
      "doubleSided": true,
      "name": "material_0.002",
      "pbrMetallicRoughness": {
        "baseColorTexture": {
          "index": 2
        },
        "metallicFactor": 0.0
      }
    },
    {
      "doubleSided": true,
      "name": "material_0.003",
      "pbrMetallicRoughness": {
        "baseColorTexture": {
          "index": 3
        },
        "metallicFactor": 0.0
      }
    }
  ],
  "meshes": [
    {
      "name": "Object_0",
      "primitives": [
        {
          "attributes": {
            "NORMAL": 1,
            "POSITION": 0,
            "TEXCOORD_0": 2
          },
          "indices": 3,
          "material": 0,
          "mode": 4
        }
      ]
    },
    {
      "name": "Object_1",
      "primitives": [
        {
          "attributes": {
            "NORMAL": 5,
            "POSITION": 4,
            "TEXCOORD_0": 6
          },
          "indices": 7,
          "material": 0,
          "mode": 4
        }
      ]
    },
    {
      "name": "Object_2",
      "primitives": [
        {
          "attributes": {
            "NORMAL": 9,
            "POSITION": 8,
            "TEXCOORD_0": 10
          },
          "indices": 11,
          "material": 0,
          "mode": 4
        }
      ]
    },
    {
      "name": "Object_3",
      "primitives": [
        {
          "attributes": {
            "NORMAL": 13,
            "POSITION": 12,
            "TEXCOORD_0": 14
          },
          "indices": 15,
          "material": 0,
          "mode": 4
        }
      ]
    },
    {
      "name": "Object_4",
      "primitives": [
        {
          "attributes": {
            "NORMAL": 17,
            "POSITION": 16,
            "TEXCOORD_0": 18
          },
          "indices": 19,
          "material": 0,
          "mode": 4
        }
      ]
    },
    {
      "name": "Object_5",
      "primitives": [
        {
          "attributes": {
            "NORMAL": 21,
            "POSITION": 20,
            "TEXCOORD_0": 22
          },
          "indices": 23,
          "material": 0,
          "mode": 4
        }
      ]
    },
    {
      "name": "Object_6",
      "primitives": [
        {
          "attributes": {
            "NORMAL": 25,
            "POSITION": 24,
            "TEXCOORD_0": 26
          },
          "indices": 27,
          "material": 0,
          "mode": 4
        }
      ]
    },
    {
      "name": "Object_7",
      "primitives": [
        {
          "attributes": {
            "NORMAL": 29,
            "POSITION": 28,
            "TEXCOORD_0": 30
          },
          "indices": 31,
          "material": 0,
          "mode": 4
        }
      ]
    },
    {
      "name": "Object_8",
      "primitives": [
        {
          "attributes": {
            "NORMAL": 33,
            "POSITION": 32,
            "TEXCOORD_0": 34
          },
          "indices": 35,
          "material": 0,
          "mode": 4
        }
      ]
    },
    {
      "name": "Object_9",
      "primitives": [
        {
          "attributes": {
            "NORMAL": 37,
            "POSITION": 36,
            "TEXCOORD_0": 38
          },
          "indices": 39,
          "material": 0,
          "mode": 4
        }
      ]
    },
    {
      "name": "Object_10",
      "primitives": [
        {
          "attributes": {
            "NORMAL": 41,
            "POSITION": 40,
            "TEXCOORD_0": 42
          },
          "indices": 43,
          "material": 0,
          "mode": 4
        }
      ]
    },
    {
      "name": "Object_11",
      "primitives": [
        {
          "attributes": {
            "NORMAL": 45,
            "POSITION": 44,
            "TEXCOORD_0": 46
          },
          "indices": 47,
          "material": 0,
          "mode": 4
        }
      ]
    },
    {
      "name": "Object_12",
      "primitives": [
        {
          "attributes": {
            "NORMAL": 49,
            "POSITION": 48,
            "TEXCOORD_0": 50
          },
          "indices": 51,
          "material": 1,
          "mode": 4
        }
      ]
    },
    {
      "name": "Object_13",
      "primitives": [
        {
          "attributes": {
            "NORMAL": 53,
            "POSITION": 52,
            "TEXCOORD_0": 54
          },
          "indices": 55,
          "material": 1,
          "mode": 4
        }
      ]
    },
    {
      "name": "Object_14",
      "primitives": [
        {
          "attributes": {
            "NORMAL": 57,
            "POSITION": 56,
            "TEXCOORD_0": 58
          },
          "indices": 59,
          "material": 1,
          "mode": 4
        }
      ]
    },
    {
      "name": "Object_15",
      "primitives": [
        {
          "attributes": {
            "NORMAL": 61,
            "POSITION": 60,
            "TEXCOORD_0": 62
          },
          "indices": 63,
          "material": 1,
          "mode": 4
        }
      ]
    },
    {
      "name": "Object_16",
      "primitives": [
        {
          "attributes": {
            "NORMAL": 65,
            "POSITION": 64,
            "TEXCOORD_0": 66
          },
          "indices": 67,
          "material": 1,
          "mode": 4
        }
      ]
    },
    {
      "name": "Object_17",
      "primitives": [
        {
          "attributes": {
            "NORMAL": 69,
            "POSITION": 68,
            "TEXCOORD_0": 70
          },
          "indices": 71,
          "material": 1,
          "mode": 4
        }
      ]
    },
    {
      "name": "Object_18",
      "primitives": [
        {
          "attributes": {
            "NORMAL": 73,
            "POSITION": 72,
            "TEXCOORD_0": 74
          },
          "indices": 75,
          "material": 1,
          "mode": 4
        }
      ]
    },
    {
      "name": "Object_19",
      "primitives": [
        {
          "attributes": {
            "NORMAL": 77,
            "POSITION": 76,
            "TEXCOORD_0": 78
          },
          "indices": 79,
          "material": 1,
          "mode": 4
        }
      ]
    },
    {
      "name": "Object_20",
      "primitives": [
        {
          "attributes": {
            "NORMAL": 81,
            "POSITION": 80,
            "TEXCOORD_0": 82
          },
          "indices": 83,
          "material": 1,
          "mode": 4
        }
      ]
    },
    {
      "name": "Object_21",
      "primitives": [
        {
          "attributes": {
            "NORMAL": 85,
            "POSITION": 84,
            "TEXCOORD_0": 86
          },
          "indices": 87,
          "material": 1,
          "mode": 4
        }
      ]
    },
    {
      "name": "Object_22",
      "primitives": [
        {
          "attributes": {
            "NORMAL": 89,
            "POSITION": 88,
            "TEXCOORD_0": 90
          },
          "indices": 91,
          "material": 1,
          "mode": 4
        }
      ]
    },
    {
      "name": "Object_23",
      "primitives": [
        {
          "attributes": {
            "NORMAL": 93,
            "POSITION": 92,
            "TEXCOORD_0": 94
          },
          "indices": 95,
          "material": 1,
          "mode": 4
        }
      ]
    },
    {
      "name": "Object_24",
      "primitives": [
        {
          "attributes": {
            "NORMAL": 97,
            "POSITION": 96,
            "TEXCOORD_0": 98
          },
          "indices": 99,
          "material": 2,
          "mode": 4
        }
      ]
    },
    {
      "name": "Object_25",
      "primitives": [
        {
          "attributes": {
            "NORMAL": 101,
            "POSITION": 100,
            "TEXCOORD_0": 102
          },
          "indices": 103,
          "material": 2,
          "mode": 4
        }
      ]
    },
    {
      "name": "Object_26",
      "primitives": [
        {
          "attributes": {
            "NORMAL": 105,
            "POSITION": 104,
            "TEXCOORD_0": 106
          },
          "indices": 107,
          "material": 2,
          "mode": 4
        }
      ]
    },
    {
      "name": "Object_27",
      "primitives": [
        {
          "attributes": {
            "NORMAL": 109,
            "POSITION": 108,
            "TEXCOORD_0": 110
          },
          "indices": 111,
          "material": 2,
          "mode": 4
        }
      ]
    },
    {
      "name": "Object_28",
      "primitives": [
        {
          "attributes": {
            "NORMAL": 113,
            "POSITION": 112,
            "TEXCOORD_0": 114
          },
          "indices": 115,
          "material": 2,
          "mode": 4
        }
      ]
    },
    {
      "name": "Object_29",
      "primitives": [
        {
          "attributes": {
            "NORMAL": 117,
            "POSITION": 116,
            "TEXCOORD_0": 118
          },
          "indices": 119,
          "material": 2,
          "mode": 4
        }
      ]
    },
    {
      "name": "Object_30",
      "primitives": [
        {
          "attributes": {
            "NORMAL": 121,
            "POSITION": 120,
            "TEXCOORD_0": 122
          },
          "indices": 123,
          "material": 2,
          "mode": 4
        }
      ]
    },
    {
      "name": "Object_31",
      "primitives": [
        {
          "attributes": {
            "NORMAL": 125,
            "POSITION": 124,
            "TEXCOORD_0": 126
          },
          "indices": 127,
          "material": 2,
          "mode": 4
        }
      ]
    },
    {
      "name": "Object_32",
      "primitives": [
        {
          "attributes": {
            "NORMAL": 129,
            "POSITION": 128,
            "TEXCOORD_0": 130
          },
          "indices": 131,
          "material": 2,
          "mode": 4
        }
      ]
    },
    {
      "name": "Object_33",
      "primitives": [
        {
          "attributes": {
            "NORMAL": 133,
            "POSITION": 132,
            "TEXCOORD_0": 134
          },
          "indices": 135,
          "material": 2,
          "mode": 4
        }
      ]
    },
    {
      "name": "Object_34",
      "primitives": [
        {
          "attributes": {
            "NORMAL": 137,
            "POSITION": 136,
            "TEXCOORD_0": 138
          },
          "indices": 139,
          "material": 3,
          "mode": 4
        }
      ]
    },
    {
      "name": "Object_35",
      "primitives": [
        {
          "attributes": {
            "NORMAL": 141,
            "POSITION": 140,
            "TEXCOORD_0": 142
          },
          "indices": 143,
          "material": 3,
          "mode": 4
        }
      ]
    },
    {
      "name": "Object_36",
      "primitives": [
        {
          "attributes": {
            "NORMAL": 145,
            "POSITION": 144,
            "TEXCOORD_0": 146
          },
          "indices": 147,
          "material": 3,
          "mode": 4
        }
      ]
    },
    {
      "name": "Object_37",
      "primitives": [
        {
          "attributes": {
            "NORMAL": 149,
            "POSITION": 148,
            "TEXCOORD_0": 150
          },
          "indices": 151,
          "material": 3,
          "mode": 4
        }
      ]
    },
    {
      "name": "Object_38",
      "primitives": [
        {
          "attributes": {
            "NORMAL": 153,
            "POSITION": 152,
            "TEXCOORD_0": 154
          },
          "indices": 155,
          "material": 3,
          "mode": 4
        }
      ]
    },
    {
      "name": "Object_39",
      "primitives": [
        {
          "attributes": {
            "NORMAL": 157,
            "POSITION": 156,
            "TEXCOORD_0": 158
          },
          "indices": 159,
          "material": 3,
          "mode": 4
        }
      ]
    },
    {
      "name": "Object_40",
      "primitives": [
        {
          "attributes": {
            "NORMAL": 161,
            "POSITION": 160,
            "TEXCOORD_0": 162
          },
          "indices": 163,
          "material": 3,
          "mode": 4
        }
      ]
    },
    {
      "name": "Object_41",
      "primitives": [
        {
          "attributes": {
            "NORMAL": 165,
            "POSITION": 164,
            "TEXCOORD_0": 166
          },
          "indices": 167,
          "material": 3,
          "mode": 4
        }
      ]
    },
    {
      "name": "Object_42",
      "primitives": [
        {
          "attributes": {
            "NORMAL": 169,
            "POSITION": 168,
            "TEXCOORD_0": 170
          },
          "indices": 171,
          "material": 3,
          "mode": 4
        }
      ]
    },
    {
      "name": "Object_43",
      "primitives": [
        {
          "attributes": {
            "NORMAL": 173,
            "POSITION": 172,
            "TEXCOORD_0": 174
          },
          "indices": 175,
          "material": 3,
          "mode": 4
        }
      ]
    },
    {
      "name": "Object_44",
      "primitives": [
        {
          "attributes": {
            "NORMAL": 177,
            "POSITION": 176,
            "TEXCOORD_0": 178
          },
          "indices": 179,
          "material": 3,
          "mode": 4
        }
      ]
    },
    {
      "name": "Object_45",
      "primitives": [
        {
          "attributes": {
            "NORMAL": 181,
            "POSITION": 180,
            "TEXCOORD_0": 182
          },
          "indices": 183,
          "material": 3,
          "mode": 4
        }
      ]
    },
    {
      "name": "Object_46",
      "primitives": [
        {
          "attributes": {
            "NORMAL": 185,
            "POSITION": 184,
            "TEXCOORD_0": 186
          },
          "indices": 187,
          "material": 3,
          "mode": 4
        }
      ]
    },
    {
      "name": "Object_47",
      "primitives": [
        {
          "attributes": {
            "NORMAL": 189,
            "POSITION": 188,
            "TEXCOORD_0": 190
          },
          "indices": 191,
          "material": 3,
          "mode": 4
        }
      ]
    },
    {
      "name": "Object_48",
      "primitives": [
        {
          "attributes": {
            "NORMAL": 193,
            "POSITION": 192,
            "TEXCOORD_0": 194
          },
          "indices": 195,
          "material": 3,
          "mode": 4
        }
      ]
    }
  ],
  "nodes": [
    {
      "children": [
        1
      ],
      "matrix": [
        1.0,
        0.0,
        0.0,
        0.0,
        0.0,
        2.220446049250313e-16,
        -1.0,
        0.0,
        0.0,
        1.0,
        2.220446049250313e-16,
        0.0,
        0.0,
        0.0,
        0.0,
        1.0
      ],
      "name": "Sketchfab_model"
    },
    {
      "children": [
        2
      ],
      "name": "root"
    },
    {
      "children": [
        3,
        16,
        29,
        40
      ],
      "matrix": [
        1.0,
        0.0,
        0.0,
        0.0,
        0.0,
        2.220446049250313e-16,
        1.0,
        0.0,
        0.0,
        -1.0,
        2.220446049250313e-16,
        0.0,
        0.0,
        0.0,
        0.0,
        1.0
      ],
      "name": "GLTF_SceneRootNode"
    },
    {
      "children": [
        4,
        5,
        6,
        7,
        8,
        9,
        10,
        11,
        12,
        13,
        14,
        15
      ],
      "matrix": [
        0.47979433158728135,
        -0.02216849365530077,
        -0.10606802248956,
        0.0,
        0.06825304982731106,
        0.43578717365046893,
        0.21765920288396637,
        0.0,
        0.08416287005004944,
        -0.22702987754889867,
        0.42815711384274296,
        0.0,
        49.76050567626953,
        12.443199157714844,
        -29.482913970947266,
        1.0
      ],
      "name": "S1_0"
    },
    {
      "mesh": 0,
      "name": "Object_4"
    },
    {
      "mesh": 1,
      "name": "Object_5"
    },
    {
      "mesh": 2,
      "name": "Object_6"
    },
    {
      "mesh": 3,
      "name": "Object_7"
    },
    {
      "mesh": 4,
      "name": "Object_8"
    },
    {
      "mesh": 5,
      "name": "Object_9"
    },
    {
      "mesh": 6,
      "name": "Object_10"
    },
    {
      "mesh": 7,
      "name": "Object_11"
    },
    {
      "mesh": 8,
      "name": "Object_12"
    },
    {
      "mesh": 9,
      "name": "Object_13"
    },
    {
      "mesh": 10,
      "name": "Object_14"
    },
    {
      "mesh": 11,
      "name": "Object_15"
    },
    {
      "children": [
        17,
        18,
        19,
        20,
        21,
        22,
        23,
        24,
        25,
        26,
        27,
        28
      ],
      "matrix": [
        0.4714557051974469,
        -0.08674546510290629,
        0.110223456895234,
        0.0,
        0.006270231923625889,
        -0.3731117691799036,
        -0.32045711104630425,
        0.0,
        0.1401237679962931,
        0.3085568020844783,
        -0.3565143723035554,
        0.0,
        93.39662170410156,
        14.98310661315918,
        -58.19096374511719,
        1.0
      ],
      "name": "S2_1"
    },
    {
      "mesh": 12,
      "name": "Object_17"
    },
    {
      "mesh": 13,
      "name": "Object_18"
    },
    {
      "mesh": 14,
      "name": "Object_19"
    },
    {
      "mesh": 15,
      "name": "Object_20"
    },
    {
      "mesh": 16,
      "name": "Object_21"
    },
    {
      "mesh": 17,
      "name": "Object_22"
    },
    {
      "mesh": 18,
      "name": "Object_23"
    },
    {
      "mesh": 19,
      "name": "Object_24"
    },
    {
      "mesh": 20,
      "name": "Object_25"
    },
    {
      "mesh": 21,
      "name": "Object_26"
    },
    {
      "mesh": 22,
      "name": "Object_27"
    },
    {
      "mesh": 23,
      "name": "Object_28"
    },
    {
      "children": [
        30,
        31,
        32,
        33,
        34,
        35,
        36,
        37,
        38,
        39
      ],
      "matrix": [
        0.3729153718927374,
        0.18493458632561754,
        0.26206448121741155,
        0.0,
        -0.08477709461866796,
        0.4444249952277846,
        -0.19298636214478485,
        0.0,
        -0.309340326765192,
        0.10114390998193283,
        0.3688128791669942,
        0.0,
        0.0,
        17.62421417236328,
        0.0,
        1.0
      ],
      "name": "S3_2"
    },
    {
      "mesh": 24,
      "name": "Object_30"
    },
    {
      "mesh": 25,
      "name": "Object_31"
    },
    {
      "mesh": 26,
      "name": "Object_32"
    },
    {
      "mesh": 27,
      "name": "Object_33"
    },
    {
      "mesh": 28,
      "name": "Object_34"
    },
    {
      "mesh": 29,
      "name": "Object_35"
    },
    {
      "mesh": 30,
      "name": "Object_36"
    },
    {
      "mesh": 31,
      "name": "Object_37"
    },
    {
      "mesh": 32,
      "name": "Object_38"
    },
    {
      "mesh": 33,
      "name": "Object_39"
    },
    {
      "children": [
        41,
        42,
        43,
        44,
        45,
        46,
        47,
        48,
        49,
        50,
        51,
        52,
        53,
        54,
        55
      ],
      "matrix": [
        -0.40508449214826703,
        0.07014293191911791,
        -0.2700573854791748,
        0.0,
        0.2198517324976189,
        0.37338415197380037,
        -0.23279595980531614,
        0.0,
        0.17180290471308407,
        -0.3124239303985419,
        -0.33885028814441204,
        0.0,
        -55.4304313659668,
        19.32337188720703,
        42.49684143066406,
        1.0
      ],
      "name": "S4_3"
    },
    {
      "mesh": 34,
      "name": "Object_41"
    },
    {
      "mesh": 35,
      "name": "Object_42"
    },
    {
      "mesh": 36,
      "name": "Object_43"
    },
    {
      "mesh": 37,
      "name": "Object_44"
    },
    {
      "mesh": 38,
      "name": "Object_45"
    },
    {
      "mesh": 39,
      "name": "Object_46"
    },
    {
      "mesh": 40,
      "name": "Object_47"
    },
    {
      "mesh": 41,
      "name": "Object_48"
    },
    {
      "mesh": 42,
      "name": "Object_49"
    },
    {
      "mesh": 43,
      "name": "Object_50"
    },
    {
      "mesh": 44,
      "name": "Object_51"
    },
    {
      "mesh": 45,
      "name": "Object_52"
    },
    {
      "mesh": 46,
      "name": "Object_53"
    },
    {
      "mesh": 47,
      "name": "Object_54"
    },
    {
      "mesh": 48,
      "name": "Object_55"
    }
  ],
  "samplers": [
    {
      "magFilter": 9729,
      "minFilter": 9987,
      "wrapS": 10497,
      "wrapT": 10497
    }
  ],
  "scene": 0,
  "scenes": [
    {
      "name": "Sketchfab_Scene",
      "nodes": [
        0
      ]
    }
  ],
  "textures": [
    {
      "sampler": 0,
      "source": 0
    },
    {
      "sampler": 0,
      "source": 1
    },
    {
      "sampler": 0,
      "source": 2
    },
    {
      "sampler": 0,
      "source": 3
    }
  ]
}
