{
  "accessors": [
    {
      "bufferView": 2,
      "componentType": 5126,
      "count": 21910,
      "max": [
        15.343727111816406,
        1.3790558576583862,
        10.607234001159668
      ],
      "min": [
        -0.9206236600875854,
        -3.9560165405273438,
        -10.907235145568848
      ],
      "type": "VEC3"
    },
    {
      "bufferView": 2,
      "byteOffset": 262920,
      "componentType": 5126,
      "count": 21910,
      "max": [
        1.0,
        1.0,
        1.0
      ],
      "min": [
        -1.0,
        -1.0,
        -1.0
      ],
      "type": "VEC3"
    },
    {
      "bufferView": 1,
      "componentType": 5126,
      "count": 21910,
      "max": [
        10.068062782287598,
        20.185928344726563
      ],
      "min": [
        -10.068062782287598,
        -9.459710121154785
      ],
      "type": "VEC2"
    },
    {
      "bufferView": 0,
      "componentType": 5125,
      "count": 42264,
      "type": "SCALAR"
    },
    {
      "bufferView": 2,
      "byteOffset": 525840,
      "componentType": 5126,
      "count": 16662,
      "max": [
        2.9239227771759033,
        4.861337661743164,
        6.88751220703125
      ],
      "min": [
        -12.027970314025879,
        -2.6852407455444336,
        -5.363348484039307
      ],
      "type": "VEC3"
    },
    {
      "bufferView": 2,
      "byteOffset": 725784,
      "componentType": 5126,
      "count": 16662,
      "max": [
        0.999987006187439,
        0.9999127388000488,
        0.9456437826156616
      ],
      "min": [
        -0.9999986886978149,
        -0.9998831748962402,
        -0.945645809173584
      ],
      "type": "VEC3"
    },
    {
      "bufferView": 0,
      "byteOffset": 169056,
      "componentType": 5125,
      "count": 79200,
      "type": "SCALAR"
    },
    {
      "bufferView": 2,
      "byteOffset": 925728,
      "componentType": 5126,
      "count": 4672,
      "max": [
        9.954127311706543,
        0.45150673389434814,
        0.06599999964237213
      ],
      "min": [
        -2.2953906059265137,
        0.0,
        -16.163450241088867
      ],
      "type": "VEC3"
    },
    {
      "bufferView": 2,
      "byteOffset": 981792,
      "componentType": 5126,
      "count": 4672,
      "max": [
        0.7171311974525452,
        0.7342603206634521,
        1.0
      ],
      "min": [
        -0.7171311974525452,
        -0.7342603206634521,
        -1.0
      ],
      "type": "VEC3"
    },
    {
      "bufferView": 0,
      "byteOffset": 485856,
      "componentType": 5125,
      "count": 12408,
      "type": "SCALAR"
    }
  ],
  "asset": {
    "extras": {
      "author": "Fallout: Tokugawa (https://sketchfab.com/Fallout-Tokugawa)",
      "license": "CC-BY-4.0 (http://creativecommons.org/licenses/by/4.0/)",
      "source": "https://sketchfab.com/3d-models/japanese-temple-roof-930bd96d9a674e2fb1c8f8d9db2746d2",
      "title": "Japanese Temple Roof"
    },
    "generator": "Sketchfab-13.12.0",
    "version": "2.0"
  },
  "bufferViews": [
    {
      "buffer": 0,
      "byteLength": 535488,
      "name": "floatBufferViews",
      "target": 34963
    },
    {
      "buffer": 0,
      "byteLength": 175280,
      "byteOffset": 535488,
      "byteStride": 8,
      "name": "floatBufferViews",
      "target": 34962
    },
    {
      "buffer": 0,
      "byteLength": 1037856,
      "byteOffset": 710768,
      "byteStride": 12,
      "name": "floatBufferViews",
      "target": 34962
    }
  ],
  "buffers": [
    {
      "byteLength": 1748624,
      "uri": "scene.bin"
    }
  ],
  "materials": [
    {
      "doubleSided": true,
      "name": "Frame",
      "pbrMetallicRoughness": {
        "baseColorFactor": [
          0.0310634,
          0.016209,
          0.00440233,
          1.0
        ],
        "metallicFactor": 0.0,
        "roughnessFactor": 0.5
      }
    },
    {
      "doubleSided": true,
      "name": "Tiles",
      "pbrMetallicRoughness": {
        "baseColorFactor": [
          0.0133363,
          0.0871189,
          0.06199,
          1.0
        ],
        "metallicFactor": 0.0,
        "roughnessFactor": 0.5
      }
    }
  ],
  "meshes": [
    {
      "name": "Object_0",
      "primitives": [
        {
          "attributes": {
            "NORMAL": 1,
            "POSITION": 0,
            "TEXCOORD_0": 2
          },
          "indices": 3,
          "material": 0,
          "mode": 4
        }
      ]
    },
    {
      "name": "Object_1",
      "primitives": [
        {
          "attributes": {
            "NORMAL": 5,
            "POSITION": 4
          },
          "indices": 6,
          "material": 1,
          "mode": 4
        }
      ]
    },
    {
      "name": "Object_2",
      "primitives": [
        {
          "attributes": {
            "NORMAL": 8,
            "POSITION": 7
          },
          "indices": 9,
          "material": 1,
          "mode": 4
        }
      ]
    }
  ],
  "nodes": [
    {
      "children": [
        1
      ],
      "matrix": [
        1.0,
        0.0,
        0.0,
        0.0,
        0.0,
        2.220446049250313e-16,
        -1.0,
        0.0,
        0.0,
        1.0,
        2.220446049250313e-16,
        0.0,
        0.0,
        0.0,
        0.0,
        1.0
      ],
      "name": "Sketchfab_model"
    },
    {
      "children": [
        2
      ],
      "name": "root"
    },
    {
      "children": [
        3,
        5,
        7
      ],
      "matrix": [
        1.0,
        0.0,
        0.0,
        0.0,
        0.0,
        2.220446049250313e-16,
        1.0,
        0.0,
        0.0,
        -1.0,
        2.220446049250313e-16,
        0.0,
        0.0,
        0.0,
        0.0,
        1.0
      ],
      "name": "GLTF_SceneRootNode"
    },
    {
      "children": [
        4
      ],
      "matrix": [
        1.0275936126708984,
        0.0,
        0.0,
        0.0,
        0.0,
        1.2200000286102295,
        0.0,
        0.0,
        0.0,
        0.0,
        0.8835999965667725,
        0.0,
        -7.457006454467773,
        15.243192672729492,
        0.12536001205444336,
        1.0
      ],
      "name": "Frame_0"
    },
    {
      "mesh": 0,
      "name": "Object_4"
    },
    {
      "children": [
        6
      ],
      "matrix": [
        1.6104888067580703e-07,
        0.3891238453307332,
        -0.9211854498389549,
        -0.0,
        -5.4120759290787745e-08,
        0.9211854498389689,
        0.38912384533072963,
        -0.0,
        -0.9999999999999856,
        1.2812703759079724e-08,
        -1.6941556357785714e-07,
        -0.0,
        0.7114238739013672,
        12.219045639038086,
        -4.387105464935303,
        1.0
      ],
      "name": "Tiles_1"
    },
    {
      "mesh": 1,
      "name": "Object_6"
    },
    {
      "children": [
        8
      ],
      "matrix": [
        1.0,
        0.0,
        0.0,
        0.0,
        0.0,
        1.0,
        0.0,
        0.0,
        0.0,
        0.0,
        1.0,
        0.0,
        -3.87935733795166,
        10.534475326538086,
        8.041544914245605,
        1.0
      ],
      "name": "RoofCaps_2"
    },
    {
      "mesh": 2,
      "name": "Object_8"
    }
  ],
  "scene": 0,
  "scenes": [
    {
      "name": "Sketchfab_Scene",
      "nodes": [
        0
      ]
    }
  ]
}
