{
  "accessors": [
    {
      "bufferView": 2,
      "componentType": 5126,
      "count": 65532,
      "max": [
        7.268020153045654,
        -0.260886013507843,
        5.102190971374512
      ],
      "min": [
        -3.1028459072113037,
        -19.85501480102539,
        -7.110857009887695
      ],
      "type": "VEC3"
    },
    {
      "bufferView": 2,
      "byteOffset": 786384,
      "componentType": 5126,
      "count": 65532,
      "max": [
        0.9987532496452332,
        0.9999983310699463,
        0.9998102188110352
      ],
      "min": [
        -0.9999986290931702,
        -0.9999301433563232,
        -0.9999921321868896
      ],
      "type": "VEC3"
    },
    {
      "bufferView": 1,
      "componentType": 5126,
      "count": 65532,
      "max": [
        0.9992679953575134,
        0.9987649917602539
      ],
      "min": [
        0.0007319999858736992,
        0.0007409999961964786
      ],
      "type": "VEC2"
    },
    {
      "bufferView": 0,
      "componentType": 5125,
      "count": 334755,
      "type": "SCALAR"
    },
    {
      "bufferView": 2,
      "byteOffset": 1572768,
      "componentType": 5126,
      "count": 65532,
      "max": [
        6.05424690246582,
        6.363438129425049,
        5.201821804046631
      ],
      "min": [
        -4.133777141571045,
        -18.079689025878906,
        -6.710373878479004
      ],
      "type": "VEC3"
    },
    {
      "bufferView": 2,
      "byteOffset": 2359152,
      "componentType": 5126,
      "count": 65532,
      "max": [
        0.999965488910675,
        0.9999556541442871,
        0.9989160895347595
      ],
      "min": [
        -0.9999791383743286,
        -0.9999682307243347,
        -0.9999925494194031
      ],
      "type": "VEC3"
    },
    {
      "bufferView": 1,
      "byteOffset": 524256,
      "componentType": 5126,
      "count": 65532,
      "max": [
        0.9992679953575134,
        0.9991350173950195
      ],
      "min": [
        0.0007319999858736992,
        0.0007409999961964786
      ],
      "type": "VEC2"
    },
    {
      "bufferView": 0,
      "byteOffset": 1339020,
      "componentType": 5125,
      "count": 339111,
      "type": "SCALAR"
    },
    {
      "bufferView": 2,
      "byteOffset": 3145536,
      "componentType": 5126,
      "count": 65532,
      "max": [
        2.764739990234375,
        6.217013835906982,
        6.004833221435547
      ],
      "min": [
        -4.156326770782471,
        -20.47879409790039,
        -4.15990686416626
      ],
      "type": "VEC3"
    },
    {
      "bufferView": 2,
      "byteOffset": 3931920,
      "componentType": 5126,
      "count": 65532,
      "max": [
        0.9833399057388306,
        0.9999253749847412,
        0.9999403357505798
      ],
      "min": [
        -0.9999985098838806,
        -0.9999987483024597,
        -0.9999925494194031
      ],
      "type": "VEC3"
    },
    {
      "bufferView": 1,
      "byteOffset": 1048512,
      "componentType": 5126,
      "count": 65532,
      "max": [
        0.9992679953575134,
        0.9990119934082031
      ],
      "min": [
        0.0007319999858736992,
        0.0007409999961964786
      ],
      "type": "VEC2"
    },
    {
      "bufferView": 0,
      "byteOffset": 2695464,
      "componentType": 5125,
      "count": 330081,
      "type": "SCALAR"
    },
    {
      "bufferView": 2,
      "byteOffset": 4718304,
      "componentType": 5126,
      "count": 65532,
      "max": [
        8.283785820007324,
        -0.25039801001548767,
        5.144430160522461
      ],
      "min": [
        -3.331648111343384,
        -13.838444709777832,
        -7.9544830322265625
      ],
      "type": "VEC3"
    },
    {
      "bufferView": 2,
      "byteOffset": 5504688,
      "componentType": 5126,
      "count": 65532,
      "max": [
        0.9932032227516174,
        0.9999893307685852,
        0.999878466129303
      ],
      "min": [
        -0.9999868869781494,
        -0.9999961256980896,
        -0.9999688863754272
      ],
      "type": "VEC3"
    },
    {
      "bufferView": 1,
      "byteOffset": 1572768,
      "componentType": 5126,
      "count": 65532,
      "max": [
        0.9992679953575134,
        0.9992589950561523
      ],
      "min": [
        0.0007319999858736992,
        0.0007409999961964786
      ],
      "type": "VEC2"
    },
    {
      "bufferView": 0,
      "byteOffset": 4015788,
      "componentType": 5125,
      "count": 329400,
      "type": "SCALAR"
    },
    {
      "bufferView": 2,
      "byteOffset": 6291072,
      "componentType": 5126,
      "count": 65532,
      "max": [
        8.731427192687988,
        6.307732105255127,
        4.551498889923096
      ],
      "min": [
        -2.934788942337036,
        -13.822372436523438,
        -8.364285469055176
      ],
      "type": "VEC3"
    },
    {
      "bufferView": 2,
      "byteOffset": 7077456,
      "componentType": 5126,
      "count": 65532,
      "max": [
        0.9933172464370728,
        0.9999585151672363,
        0.9999732375144958
      ],
      "min": [
        -0.9999741315841675,
        -0.999993622303009,
        -0.9999803304672241
      ],
      "type": "VEC3"
    },
    {
      "bufferView": 1,
      "byteOffset": 2097024,
      "componentType": 5126,
      "count": 65532,
      "max": [
        0.9992679953575134,
        0.9992589950561523
      ],
      "min": [
        0.0007319999858736992,
        0.0007409999961964786
      ],
      "type": "VEC2"
    },
    {
      "bufferView": 0,
      "byteOffset": 5333388,
      "componentType": 5125,
      "count": 332652,
      "type": "SCALAR"
    },
    {
      "bufferView": 2,
      "byteOffset": 7863840,
      "componentType": 5126,
      "count": 20349,
      "max": [
        3.6753499507904053,
        -6.974977016448975,
        5.140411853790283
      ],
      "min": [
        -3.7938790321350098,
        -17.72673988342285,
        -1.7175840139389038
      ],
      "type": "VEC3"
    },
    {
      "bufferView": 2,
      "byteOffset": 8108028,
      "componentType": 5126,
      "count": 20349,
      "max": [
        0.8325670957565308,
        0.9999440908432007,
        0.9999732375144958
      ],
      "min": [
        -0.9999530911445618,
        -0.9999993443489075,
        -0.9999462366104126
      ],
      "type": "VEC3"
    },
    {
      "bufferView": 1,
      "byteOffset": 2621280,
      "componentType": 5126,
      "count": 20349,
      "max": [
        0.9992679953575134,
        0.9991350173950195
      ],
      "min": [
        0.0007319999858736992,
        0.002346999943256378
      ],
      "type": "VEC2"
    },
    {
      "bufferView": 0,
      "byteOffset": 6663996,
      "componentType": 5125,
      "count": 103815,
      "type": "SCALAR"
    }
  ],
  "asset": {
    "extras": {
      "author": "Geoffrey Marchal (https://sketchfab.com/geoffreymarchal)",
      "license": "CC-BY-NC-SA-4.0 (http://creativecommons.org/licenses/by-nc-sa/4.0/)",
      "source": "https://sketchfab.com/3d-models/chimney-or-altar-9cd67cd2882244d5a8c520481c70cb2e",
      "title": "Chimney or altar"
    },
    "generator": "Sketchfab-15.12.0",
    "version": "2.0"
  },
  "bufferViews": [
    {
      "buffer": 0,
      "byteLength": 7079256,
      "name": "floatBufferViews",
      "target": 34963
    },
    {
      "buffer": 0,
      "byteLength": 2784072,
      "byteOffset": 7079256,
      "byteStride": 8,
      "name": "floatBufferViews",
      "target": 34962
    },
    {
      "buffer": 0,
      "byteLength": 8352216,
      "byteOffset": 9863328,
      "byteStride": 12,
      "name": "floatBufferViews",
      "target": 34962
    }
  ],
  "buffers": [
    {
      "byteLength": 18215544,
      "uri": "scene.bin"
    }
  ],
  "extensionsUsed": [
    "KHR_materials_specular"
  ],
  "images": [
    {
      "uri": "textures/Material_0_baseColor.jpeg"
    },
    {
      "uri": "textures/Material_0_specularf0.png"
    }
  ],
  "materials": [
    {
      "doubleSided": true,
      "extensions": {
        "KHR_materials_specular": {
          "specularColorFactor": [
            1.0,
            1.0,
            1.0
          ],
          "specularFactor": 1.0,
          "specularTexture": {
            "index": 1
          }
        }
      },
      "name": "Material_0",
      "pbrMetallicRoughness": {
        "baseColorTexture": {
          "index": 0
        },
        "metallicFactor": 0.0
      }
    }
  ],
  "meshes": [
    {
      "name": "Object_0",
      "primitives": [
        {
          "attributes": {
            "NORMAL": 1,
            "POSITION": 0,
            "TEXCOORD_0": 2
          },
          "indices": 3,
          "material": 0,
          "mode": 4
        }
      ]
    },
    {
      "name": "Object_1",
      "primitives": [
        {
          "attributes": {
            "NORMAL": 5,
            "POSITION": 4,
            "TEXCOORD_0": 6
          },
          "indices": 7,
          "material": 0,
          "mode": 4
        }
      ]
    },
    {
      "name": "Object_2",
      "primitives": [
        {
          "attributes": {
            "NORMAL": 9,
            "POSITION": 8,
            "TEXCOORD_0": 10
          },
          "indices": 11,
          "material": 0,
          "mode": 4
        }
      ]
    },
    {
      "name": "Object_3",
      "primitives": [
        {
          "attributes": {
            "NORMAL": 13,
            "POSITION": 12,
            "TEXCOORD_0": 14
          },
          "indices": 15,
          "material": 0,
          "mode": 4
        }
      ]
    },
    {
      "name": "Object_4",
      "primitives": [
        {
          "attributes": {
            "NORMAL": 17,
            "POSITION": 16,
            "TEXCOORD_0": 18
          },
          "indices": 19,
          "material": 0,
          "mode": 4
        }
      ]
    },
    {
      "name": "Object_5",
      "primitives": [
        {
          "attributes": {
            "NORMAL": 21,
            "POSITION": 20,
            "TEXCOORD_0": 22
          },
          "indices": 23,
          "material": 0,
          "mode": 4
        }
      ]
    }
  ],
  "nodes": [
    {
      "children": [
        1
      ],
      "matrix": [
        -0.6341898441314697,
        -6.065755136520754e-17,
        0.7731773257255554,
        0.0,
        2.220446049250313e-16,
        -1.0,
        0.0,
        0.0,
        0.7731773257255554,
        1.9224847399990758e-16,
        0.6341898441314697,
        0.0,
        0.0,
        0.0,
        0.0,
        1.0
      ],
      "name": "Sketchfab_model"
    },
    {
      "children": [
        2,
        3,
        4,
        5,
        6,
        7
      ],
      "name": "chemine.obj.cleaner.materialmerger.gles"
    },
    {
      "mesh": 0,
      "name": "Object_2"
    },
    {
      "mesh": 1,
      "name": "Object_3"
    },
    {
      "mesh": 2,
      "name": "Object_4"
    },
    {
      "mesh": 3,
      "name": "Object_5"
    },
    {
      "mesh": 4,
      "name": "Object_6"
    },
    {
      "mesh": 5,
      "name": "Object_7"
    }
  ],
  "samplers": [
    {
      "magFilter": 9729,
      "minFilter": 9987,
      "wrapS": 10497,
      "wrapT": 10497
    },
    {
      "magFilter": 9728,
      "minFilter": 9728,
      "wrapS": 10497,
      "wrapT": 10497
    }
  ],
  "scene": 0,
  "scenes": [
    {
      "name": "Sketchfab_Scene",
      "nodes": [
        0
      ]
    }
  ],
  "textures": [
    {
      "sampler": 0,
      "source": 0
    },
    {
      "sampler": 1,
      "source": 1
    }
  ]
}
