{
  "accessors": [
    {
      "bufferView": 2,
      "componentType": 5126,
      "count": 23574,
      "max": [
        6.137506008148193,
        -3.965151071548462,
        4.379367828369141
      ],
      "min": [
        -7.636454105377197,
        -14.312925338745117,
        -3.915541887283325
      ],
      "type": "VEC3"
    },
    {
      "bufferView": 2,
      "byteOffset": 282888,
      "componentType": 5126,
      "count": 23574,
      "max": [
        0.999618649482727,
        0.9998582601547241,
        0.9999715089797974
      ],
      "min": [
        -0.9998733401298523,
        -0.9998356699943542,
        -0.9999951124191284
      ],
      "type": "VEC3"
    },
    {
      "bufferView": 1,
      "componentType": 5126,
      "count": 23574,
      "max": [
        0.9925410151481628,
        0.9995989799499512
      ],
      "min": [
        0.0008629999938420951,
        0.0039059999398887157
      ],
      "type": "VEC2"
    },
    {
      "bufferView": 0,
      "componentType": 5125,
      "count": 108369,
      "type": "SCALAR"
    }
  ],
  "asset": {
    "extras": {
      "author": "Peter Leban (https://sketchfab.com/Pjotruska)",
      "license": "CC-BY-4.0 (http://creativecommons.org/licenses/by/4.0/)",
      "source": "https://sketchfab.com/3d-models/drevo-7a0f2d413b5846f591b40580f783c53c",
      "title": "Drevo"
    },
    "generator": "Sketchfab-15.55.0",
    "version": "2.0"
  },
  "bufferViews": [
    {
      "buffer": 0,
      "byteLength": 433476,
      "name": "floatBufferViews",
      "target": 34963
    },
    {
      "buffer": 0,
      "byteLength": 188592,
      "byteOffset": 433476,
      "byteStride": 8,
      "name": "floatBufferViews",
      "target": 34962
    },
    {
      "buffer": 0,
      "byteLength": 565776,
      "byteOffset": 622068,
      "byteStride": 12,
      "name": "floatBufferViews",
      "target": 34962
    }
  ],
  "buffers": [
    {
      "byteLength": 1187844,
      "uri": "scene.bin"
    }
  ],
  "images": [
    {
      "uri": "textures/Drevo_baseColor.png"
    }
  ],
  "materials": [
    {
      "doubleSided": true,
      "name": "Drevo",
      "pbrMetallicRoughness": {
        "baseColorTexture": {
          "index": 0
        },
        "metallicFactor": 0.0,
        "roughnessFactor": 0.6
      }
    }
  ],
  "meshes": [
    {
      "name": "Object_0",
      "primitives": [
        {
          "attributes": {
            "NORMAL": 1,
            "POSITION": 0,
            "TEXCOORD_0": 2
          },
          "indices": 3,
          "material": 0,
          "mode": 4
        }
      ]
    }
  ],
  "nodes": [
    {
      "children": [
        1
      ],
      "matrix": [
        0.22826183247904908,
        -0.04565813432252597,
        -1.013814239725929e-17,
        0.0,
        0.02840018837018654,
        0.14198299804073142,
        0.18227009521774565,
        0.0,
        -0.035750448940232715,
        -0.17872965971213975,
        0.14479552465727605,
        0.0,
        0.0,
        0.0,
        0.0,
        1.0
      ],
      "name": "Sketchfab_model"
    },
    {
      "children": [
        2
      ],
      "name": "Drevo.obj.cleaner.materialmerger.gles"
    },
    {
      "mesh": 0,
      "name": "Object_2"
    }
  ],
  "samplers": [
    {
      "magFilter": 9729,
      "minFilter": 9987,
      "wrapS": 10497,
      "wrapT": 10497
    }
  ],
  "scene": 0,
  "scenes": [
    {
      "name": "Sketchfab_Scene",
      "nodes": [
        0
      ]
    }
  ],
  "textures": [
    {
      "sampler": 0,
      "source": 0
    }
  ]
}
